<svg xmlns="http://www.w3.org/2000/svg" width="80" height="82" viewBox="0 0 80 82">
  <g fill="none">
    <path fill="#104386" d="M79.0303,65.13229 C80.61041,72.17239 76.1802,79.22171 69.1304,80.81149 C68.16019,81.03119 67.1802,81.1416 66.21051,81.1416 C63.77051,81.1416 61.37009,80.45169 59.25049,79.12161 C56.28031,77.2417 54.22022,74.32129 53.4502,70.8916 L52.46051,66.41159 L46.69049,66.41159 C45.3501,66.41159 44.17041,65.52151 43.80029,64.23141 L42.64019,60.1416 L37.3604,60.1416 L36.20018,64.23141 C35.83009,65.52151 34.65038,66.41159 33.31007,66.41159 L27.23048,66.41159 L26.24028,70.8818 C25.46049,74.32128 23.40038,77.24169 20.44048,79.12161 C18.3203,80.45169 15.92038,81.1416 13.48049,81.1416 C12.51029,81.1416 11.53029,81.03119 10.5601,80.81149 C3.5103,79.22171 -0.92971,72.17239 0.6602,65.11129 C0.6602,65.11129 4.59039,48.02151 6.0103,42.35159 C7.08009,38.07129 9.7002,34.42239 13.15041,31.8818 C13.0801,31.62161 13.03031,31.35159 13.03031,31.06149 L13.03031,24.30179 C13.03031,22.9819 13.90041,21.81149 15.1704,21.43161 L20.63041,19.7915 C20.7002,19.63229 20.76032,19.47171 20.83012,19.31149 L18.13041,14.2915 C17.5005,13.12161 17.71052,11.68161 18.6504,10.75201 L23.43022,5.97171 C24.36043,5.03119 25.80031,4.82129 26.97023,5.45169 L31.99031,8.1514 C32.15041,8.08151 32.3101,8.02152 32.47023,7.95169 L34.11043,2.4917 C34.49031,1.22171 35.6602,0.35159 36.98052,0.35159 L43.74032,0.35159 C45.07034,0.35159 46.24032,1.22171 46.62011,2.4917 L48.26034,7.95169 C48.42044,8.02151 48.57034,8.08151 48.73052,8.1514 L53.76034,5.45169 C54.93023,4.82129 56.37011,5.03119 57.30032,5.97171 L62.08014,10.75201 C63.02054,11.6914 63.23053,13.13229 62.60013,14.30178 L59.90042,19.32128 C59.97024,19.4717 60.03033,19.63228 60.10013,19.79149 L65.56012,21.4316 C66.83014,21.81148 67.70023,22.98189 67.70023,24.30178 L67.70023,31.06148 C67.70023,31.51168 67.59043,31.9316 67.42044,32.31148 C70.89023,35.0815 73.39023,39.0215 74.29013,43.55217 L79.0303,65.13229 Z M67.80029,74.96191 C71.6304,74.10159 74.0303,70.27151 73.17041,66.43161 L71.33011,58.06149 C68.43021,62.32129 63.84039,65.32129 58.55029,66.15139 L59.31009,69.59228 C59.7305,71.44189 60.84039,73.03118 62.4502,74.0415 C64.06009,75.05219 65.96051,75.38181 67.80029,74.96191 Z M68.66019,47.2915 C68.66019,40.05218 62.8003,34.16159 55.61042,34.16159 L24.3902,34.16159 C17.2002,34.16159 11.3404,40.05218 11.3404,47.2915 C11.3404,54.52151 17.2002,60.41159 24.3902,60.41159 L31.0503,60.41159 L32.21052,56.32129 C32.58012,55.03119 33.7505,54.1416 35.0904,54.1416 L44.9004,54.1416 C46.2505,54.1416 47.42042,55.03119 47.79011,56.32129 L48.95021,60.41159 L55.61043,60.41159 C62.80029,60.41159 68.66019,54.52151 68.66019,47.2915 Z M61.7002,28.83151 L61.7002,26.5415 L56.92041,25.10159 C55.97021,24.82129 55.22021,24.08151 54.92041,23.12161 C54.66019,22.28119 54.31009,21.44189 53.8804,20.62161 C53.42041,19.7417 53.42041,18.68161 53.90039,17.81149 L56.26031,13.42239 L54.64019,11.7915 L50.24029,14.15139 C49.36041,14.63229 48.31008,14.63229 47.4204,14.17239 C46.6104,13.7417 45.7705,13.3916 44.9204,13.13229 C43.9702,12.83151 43.23049,12.08151 42.94048,11.13229 L41.5103,6.35159 L39.2202,6.35159 L37.78029,11.12161 C37.50047,12.08151 36.7603,12.83151 35.81008,13.13229 C34.95019,13.3916 34.1104,13.7417 33.30028,14.17239 C32.4204,14.63229 31.3604,14.63229 30.48049,14.15139 L26.09038,11.7915 L24.4702,13.41159 L26.83009,17.80179 C27.31007,18.68161 27.31007,19.7417 26.85008,20.62161 C26.42039,21.43161 26.07029,22.28119 25.81007,23.13229 C25.5103,24.08151 24.7603,24.82129 23.80027,25.10159 L19.03028,26.5415 L19.03028,28.83151 L19.24027,28.8916 C20.88038,28.43161 22.61039,28.16159 24.39017,28.16159 L29.55027,28.16159 C29.54008,28.00201 29.53028,27.85159 29.53028,27.68161 C29.53028,21.71191 34.39017,16.85159 40.36039,16.85159 C46.34037,16.85159 51.20017,21.71191 51.20017,27.68161 C51.20017,27.85159 51.18018,28.00201 51.18018,28.16159 L55.61039,28.16159 C57.53028,28.16159 59.39018,28.46191 61.15037,29.00201 L61.7002,28.83151 Z M45.15039,28.16159 C45.16019,28.00201 45.20019,27.85159 45.20019,27.68161 C45.20019,25.02151 43.0303,22.85159 40.36041,22.85159 C37.70019,22.85159 35.5303,25.02151 35.5303,27.68161 C35.5303,27.85159 35.56009,28.00201 35.5801,28.16159 L45.15039,28.16159 Z M20.3804,69.58151 L21.15039,66.1113 C15.84039,65.19141 11.27049,62.0615 8.43021,57.70169 L6.5205,66.41159 C5.65041,70.27151 8.06011,74.10159 11.89021,74.96191 C13.73051,75.3818 15.63041,75.05218 17.23051,74.0415 C18.84039,73.03119 19.96051,71.44189 20.3804,69.58151 Z"/>
    <path fill="#69F" d="M73.17041,66.43161 C74.0303,70.27151 71.6304,74.10159 67.80029,74.96191 C65.96051,75.3818 64.06009,75.05218 62.45019,74.0415 C60.84039,73.03119 59.73049,71.44189 59.31008,69.59228 L58.55028,66.15139 C63.84038,65.32128 68.43019,62.32128 71.3301,58.06149 L73.17041,66.43161 Z"/>
    <path fill="#104386" d="M63.15039,44.02151 C63.71051,44.58151 64.0303,45.35159 64.0303,46.1416 C64.0303,46.93161 63.71051,47.70169 63.15039,48.26169 C62.59039,48.82129 61.82031,49.1416 61.0303,49.1416 C60.24029,49.1416 59.47021,48.82129 58.91018,48.26169 C58.35009,47.70169 58.0303,46.93161 58.0303,46.1416 C58.0303,45.35159 58.35009,44.58151 58.91018,44.02151 C60.0303,42.90189 62.0401,42.90189 63.15039,44.02151 Z"/>
    <path fill="#FFF" d="M61.7002,26.5415 L61.7002,28.83151 L61.1504,29.00201 C59.39021,28.46191 57.53031,28.16159 55.61042,28.16159 L51.18021,28.16159 C51.18021,28.00201 51.2002,27.85159 51.2002,27.68161 C51.2002,21.71191 46.3404,16.85159 40.36042,16.85159 C34.39021,16.85159 29.53031,21.71191 29.53031,27.68161 C29.53031,27.85159 29.54011,28.00201 29.5503,28.16159 L24.3902,28.16159 C22.61041,28.16159 20.8804,28.43161 19.2403,28.8916 L19.03031,28.83151 L19.03031,26.5415 L23.8003,25.10159 C24.76032,24.82129 25.51032,24.08151 25.8101,23.13229 C26.07032,22.28119 26.42042,21.43161 26.85011,20.62161 C27.3101,19.7417 27.3101,18.68161 26.83012,17.80179 L24.47023,13.41159 L26.09041,11.7915 L30.48052,14.15139 C31.36043,14.63229 32.42043,14.63229 33.30031,14.17239 C34.11043,13.7417 34.95021,13.3916 35.81011,13.13229 C36.76034,12.83151 37.50051,12.08151 37.78032,11.12161 L39.22023,6.35159 L41.51033,6.35159 L42.94051,11.13229 C43.23052,12.08151 43.97023,12.83151 44.92043,13.13229 C45.77053,13.3916 46.61043,13.7417 47.42043,14.17239 C48.31011,14.63229 49.36043,14.63229 50.24032,14.15139 L54.64022,11.7915 L56.26034,13.42239 L53.90042,17.81149 C53.42044,18.68161 53.42044,19.7417 53.88043,20.62161 C54.31012,21.44189 54.66022,22.28119 54.92044,23.12161 C55.22024,24.08151 55.97024,24.82129 56.92044,25.10159 L61.7002,26.5415 Z"/>
    <path fill="#104386" d="M59.0303 41.1416C59.0303 41.93161 58.71051 42.70169 58.15039 43.26169 57.59039 43.82129 56.82031 44.1416 56.0303 44.1416 55.24029 44.1416 54.47021 43.82129 53.91018 43.26169 53.35009 42.70169 53.0303 41.93161 53.0303 41.1416 53.0303 40.35159 53.35009 39.58151 53.91018 39.02151 55.0205 37.90188 57.0303 37.90188 58.15038 39.02151 58.71051 39.58151 59.0303 40.35159 59.0303 41.1416zM58.15039 49.02151C58.71051 49.58151 59.0303 50.35159 59.0303 51.1416 59.0303 51.93161 58.71051 52.70169 58.15039 53.26169 57.59039 53.82129 56.82031 54.1416 56.0303 54.1416 55.24029 54.1416 54.47021 53.82129 53.91018 53.26169 53.35009 52.70169 53.0303 51.93161 53.0303 51.1416 53.0303 50.35159 53.35009 49.58151 53.91018 49.02151 55.02051 47.90189 57.0303 47.90189 58.15039 49.02151zM54.0303 46.1416C54.0303 46.93161 53.71051 47.70169 53.15039 48.26169 52.59039 48.82129 51.82031 49.1416 51.0303 49.1416 50.24029 49.1416 49.47021 48.82129 48.91018 48.26169 48.35009 47.70169 48.0303 46.93161 48.0303 46.1416 48.0303 45.35159 48.35009 44.58151 48.91018 44.02151 50.0205 42.90188 52.0303 42.90188 53.15038 44.02151 53.71051 44.58151 54.0303 45.35159 54.0303 46.1416zM29.0303 43.1416C30.69049 43.1416 32.0303 44.4819 32.0303 46.1416 32.0303 47.80179 30.69049 49.1416 29.0303 49.1416L27.0303 49.1416C25.37008 49.1416 24.0303 47.80179 24.0303 46.1416 24.0303 44.4819 25.37008 43.1416 27.0303 43.1416L29.0303 43.1416zM25.5303 51.1416L25.5303 53.1416C25.5303 54.80179 24.19049 56.1416 22.5303 56.1416 20.87008 56.1416 19.5303 54.80179 19.5303 53.1416L19.5303 51.1416C19.5303 49.4819 20.87008 48.1416 22.5303 48.1416 24.19049 48.1416 25.5303 49.4819 25.5303 51.1416zM25.5303 39.1416L25.5303 41.1416C25.5303 42.80179 24.19049 44.1416 22.5303 44.1416 20.87008 44.1416 19.5303 42.80179 19.5303 41.1416L19.5303 39.1416C19.5303 37.4819 20.87008 36.1416 22.5303 36.1416 24.19049 36.1416 25.5303 37.4819 25.5303 39.1416z"/>
    <path fill="#69F" d="M21.15039,66.1113 L20.3804,69.58151 C19.96051,71.44189 18.84039,73.03119 17.2305,74.0415 C15.6304,75.05218 13.7305,75.3818 11.8902,74.96191 C8.06011,74.10159 5.65041,70.27151 6.52049,66.41159 L8.4302,57.70169 C11.27049,62.06149 15.84039,65.19141 21.15039,66.1113 Z"/>
    <path fill="#104386" d="M21.0303,46.1416 C21.0303,47.80179 19.69049,49.1416 18.0303,49.1416 L16.0303,49.1416 C14.3701,49.1416 13.0303,47.80179 13.0303,46.1416 C13.0303,44.4819 14.3701,43.1416 16.0303,43.1416 L18.0303,43.1416 C19.69049,43.1416 21.0303,44.4819 21.0303,46.1416 Z"/>
    <path fill="#F60" d="M24.3902,34.16159 L55.61041,34.16159 C62.80029,34.16159 68.66018,40.05218 68.66018,47.2915 C68.66018,54.52151 62.80029,60.41159 55.61041,60.41159 L48.95019,60.41159 L47.79009,56.32129 C47.4204,55.03119 46.25048,54.1416 44.90038,54.1416 L35.09038,54.1416 C33.75048,54.1416 32.5801,55.03119 32.2105,56.32129 L31.05028,60.41159 L24.39018,60.41159 C17.20018,60.41159 11.34038,54.52151 11.34038,47.2915 C11.34039,40.05219 17.2002,34.16159 24.3902,34.16159 Z M21.0303,46.1416 C21.0303,44.4819 19.69049,43.1416 18.0303,43.1416 L16.0303,43.1416 C14.3701,43.1416 13.0303,44.4819 13.0303,46.1416 C13.0303,47.80179 14.3701,49.1416 16.0303,49.1416 L18.0303,49.1416 C19.69049,49.1416 21.0303,47.80179 21.0303,46.1416 Z M25.5303,51.1416 C25.5303,49.4819 24.19049,48.1416 22.5303,48.1416 C20.87008,48.1416 19.5303,49.4819 19.5303,51.1416 L19.5303,53.1416 C19.5303,54.80179 20.87008,56.1416 22.5303,56.1416 C24.19049,56.1416 25.5303,54.80179 25.5303,53.1416 L25.5303,51.1416 Z M22.5303,44.1416 C24.19049,44.1416 25.5303,42.80179 25.5303,41.1416 L25.5303,39.1416 C25.5303,37.4819 24.19049,36.1416 22.5303,36.1416 C20.87008,36.1416 19.5303,37.4819 19.5303,39.1416 L19.5303,41.1416 C19.5303,42.80179 20.87009,44.1416 22.5303,44.1416 Z M27.0303,43.1416 C25.37008,43.1416 24.0303,44.4819 24.0303,46.1416 C24.0303,47.80179 25.37008,49.1416 27.0303,49.1416 L29.0303,49.1416 C30.69049,49.1416 32.0303,47.80179 32.0303,46.1416 C32.0303,44.4819 30.69049,43.1416 29.0303,43.1416 L27.0303,43.1416 Z M56.0303,44.1416 C56.82031,44.1416 57.59039,43.82129 58.15039,43.26169 C58.71051,42.70169 59.0303,41.93161 59.0303,41.1416 C59.0303,40.35159 58.71051,39.58151 58.15039,39.02151 C57.0303,37.90188 55.02051,37.90188 53.91019,39.02151 C53.3501,39.58151 53.03031,40.35159 53.03031,41.1416 C53.03031,41.93161 53.3501,42.70169 53.91019,43.26169 C54.47021,43.82129 55.2403,44.1416 56.0303,44.1416 Z M53.15039,44.02151 C52.0303,42.90188 50.02051,42.90188 48.91019,44.02151 C48.3501,44.58151 48.03031,45.35159 48.03031,46.1416 C48.03031,46.93161 48.3501,47.70169 48.91019,48.26169 C49.47022,48.82129 50.2403,49.1416 51.03031,49.1416 C51.82032,49.1416 52.5904,48.82129 53.1504,48.26169 C53.71052,47.70169 54.03031,46.93161 54.03031,46.1416 C54.03031,45.35159 53.71051,44.58151 53.15039,44.02151 Z M58.91019,48.26169 C59.47022,48.82129 60.2403,49.1416 61.03031,49.1416 C61.82032,49.1416 62.5904,48.82129 63.1504,48.26169 C63.71052,47.70169 64.03031,46.93161 64.03031,46.1416 C64.03031,45.35159 63.71052,44.58151 63.1504,44.02151 C62.04011,42.90188 60.03031,42.90188 58.9102,44.02151 C58.35011,44.58151 58.03032,45.35159 58.03032,46.1416 C58.03032,46.93161 58.3501,47.70169 58.91019,48.26169 Z M58.15039,49.02151 C57.0303,47.90188 55.02051,47.90188 53.91019,49.02151 C53.3501,49.58151 53.03031,50.35159 53.03031,51.1416 C53.03031,51.93161 53.3501,52.70169 53.91019,53.26169 C54.47022,53.82129 55.2403,54.1416 56.03031,54.1416 C56.82032,54.1416 57.5904,53.82129 58.1504,53.26169 C58.71052,52.70169 59.03031,51.93161 59.03031,51.1416 C59.03031,50.35159 58.71051,49.58151 58.15039,49.02151 Z"/>
  </g>
</svg>
