<svg xmlns="http://www.w3.org/2000/svg" width="24" height="24" viewBox="0 0 24 24">
  <path d="M12,1 C18.0654,1 23,5.9346 23,12 C23,18.0654 18.0654,23 12,23 C5.9346,23 1,18.0654 1,12 C1,5.9346 5.9346,1 12,1 Z M12,0 C5.373,0 0,5.373 0,12 C0,18.627 5.373,24 12,24 C18.627,24 24,18.627 24,12 C24,5.373 18.627,0 12,0 Z M16.1562081,14.7804951 L16.994,15.33 C15.724,17.141 13.881,18 12,18 C8.691,18 6,15.308 6,12 C6,8.692 8.692,6 12,6 C13.86,6 15.712,6.844 16.993,8.67 L16.1559027,9.2190493 C15.2586592,7.88084555 13.7321958,7 12,7 C9.23857625,7 7,9.23857625 7,12 C7,14.7614237 9.23857625,17 12,17 C13.7323924,17 15.2590056,16.1189545 16.1562081,14.7804951 Z"/>
</svg>
