<?xml version="1.0" standalone="no"?>
<!DOCTYPE svg PUBLIC "-//W3C//DTD SVG 20010904//EN"
 "http://www.w3.org/TR/2001/REC-SVG-20010904/DTD/svg10.dtd">
<svg version="1.0" xmlns="http://www.w3.org/2000/svg"
 width="824.000000pt" height="824.000000pt" viewBox="0 0 824.000000 824.000000"
 preserveAspectRatio="xMidYMid meet">
<metadata>
Created by potrace 1.11, written by Peter Selinger 2001-2013
</metadata>
<g transform="translate(0.000000,824.000000) scale(0.100000,-0.100000)"
fill="#000000" stroke="none">
<path d="M0 4120 l0 -3200 2743 2 2742 3 0 453 c0 248 2 452 5 453 3 1 207 2
454 3 l450 1 7 27 c4 16 3 28 -1 28 -5 0 -5 14 0 30 5 17 5 30 0 30 -5 0 -5
13 0 30 5 17 5 30 0 30 -5 0 -5 13 0 30 5 17 5 30 0 30 -5 0 -5 13 0 30 5 17
5 30 0 30 -5 0 -5 13 0 30 5 17 5 30 0 30 -5 0 -5 13 0 30 5 17 5 30 0 30 -5
0 -5 13 0 30 5 17 5 30 0 30 -5 0 -5 13 0 30 5 17 5 30 0 30 -5 0 -5 13 0 30
5 17 5 30 0 30 -5 0 -5 13 0 30 5 17 5 30 0 30 -5 0 -5 13 0 30 5 17 5 30 0
30 -5 0 -5 13 0 30 5 17 5 30 0 30 -5 0 -5 13 0 30 5 17 5 30 1 30 -4 0 -5 16
-3 35 l4 35 449 0 c248 -1 454 2 460 6 6 3 10 25 9 48 -1 22 -1 46 0 51 2 14
1 230 -1 241 -1 5 -1 14 0 19 3 14 3 189 0 201 -1 5 -1 14 0 19 1 6 2 79 2
163 l0 153 72 -1 c40 -1 77 -1 82 0 6 2 14 2 18 1 13 -2 191 -3 202 0 6 1 13
1 17 0 15 -2 133 -3 143 -1 6 1 13 2 17 1 15 -2 133 -3 143 -1 6 1 14 2 19 1
12 -3 149 -3 161 -1 6 1 18 2 28 1 16 -2 17 26 17 468 l0 471 -27 0 c-32 0
-613 -1 -628 -2 -5 0 -67 1 -136 2 l-126 2 -2 49 c-1 28 -2 53 -2 57 -1 4 -1
12 0 17 2 14 2 511 0 522 -1 4 -1 10 0 13 1 3 3 62 4 132 l2 128 -460 2 -460
3 -1 28 c-1 15 -4 30 -7 33 -4 4 -2 14 3 23 5 10 5 23 1 30 -5 7 -5 29 -1 49
3 21 3 49 -1 65 -4 15 -4 27 -1 27 4 0 7 29 7 65 0 36 -3 65 -7 65 -4 0 -3 14
2 30 5 17 5 30 0 30 -5 0 -5 13 0 30 5 17 5 30 0 30 -5 0 -5 13 0 30 5 17 5
30 0 30 -5 0 -5 13 0 30 5 17 5 30 0 30 -4 0 -5 15 -1 33 4 17 4 47 0 65 -3
18 -3 35 2 38 4 2 4 15 -1 28 -4 12 -4 29 0 36 5 8 6 18 3 23 -3 6 -6 19 -7
31 l-1 21 -450 0 c-247 0 -452 3 -455 7 -3 3 -5 209 -5 457 l1 451 -2743 0
-2743 0 0 -3200z m4575 1377 c-1 -502 -3 -916 -3 -922 -1 -7 -464 -9 -1369 -8
-753 0 -1371 1 -1374 2 -3 1 -5 415 -5 920 l0 920 1376 0 1376 -1 -1 -911z
m1821 -932 c-2 -7 0 -18 4 -25 5 -7 4 -24 0 -36 -6 -14 -5 -26 0 -29 5 -3 5
-18 0 -35 -5 -17 -5 -30 0 -30 5 0 5 -13 0 -30 -5 -17 -5 -30 0 -30 5 0 5 -13
0 -30 -5 -17 -5 -30 0 -30 5 0 5 -13 0 -30 -5 -17 -5 -30 0 -30 5 0 5 -13 0
-30 -5 -17 -5 -30 0 -30 5 0 5 -13 0 -30 -5 -17 -5 -30 0 -30 5 0 5 -13 0 -30
-5 -17 -5 -30 0 -30 5 0 5 -13 0 -30 -5 -17 -5 -30 0 -30 5 0 5 -13 0 -30 -5
-17 -5 -30 0 -30 5 0 5 -13 0 -30 -5 -17 -5 -30 0 -30 5 0 5 -13 0 -30 -5 -17
-5 -30 0 -30 5 0 5 -13 0 -30 -5 -17 -5 -30 0 -30 5 0 5 -13 0 -30 -5 -17 -5
-30 0 -30 5 0 7 -6 4 -13 -4 -11 -89 -14 -462 -14 l-457 0 0 451 c0 248 3 454
8 457 4 3 210 5 458 5 338 0 449 -2 445 -11z m-1845 -894 l25 -1 0 -920 0
-920 -1376 1 -1376 2 1 916 c1 504 3 918 3 921 2 4 2628 5 2723 1z"/>
</g>
</svg>
